<svg xmlns="http://www.w3.org/2000/svg" viewBox="0 0 64 64" fill="none">
  <rect width="64" height="64" rx="14" fill="#F8FAFC" />
  <g transform="translate(38 32)" fill="#EB6905">
    <rect x="-2.5" y="-25" width="5" height="8" rx="1.6" />
    <rect x="-2.5" y="17" width="5" height="8" rx="1.6" />
    <rect x="17" y="-2.5" width="8" height="5" rx="1.6" />
    <rect x="-25" y="-2.5" width="8" height="5" rx="1.6" />
    <rect x="12.4" y="-19.6" width="5" height="8" rx="1.6" transform="rotate(45 12.4 -19.6)" />
    <rect x="12.4" y="11.6" width="5" height="8" rx="1.6" transform="rotate(135 12.4 11.6)" />
    <rect x="-12.4" y="11.6" width="5" height="8" rx="1.6" transform="rotate(-135 -12.4 11.6)" />
    <rect x="-12.4" y="-19.6" width="5" height="8" rx="1.6" transform="rotate(-45 -12.4 -19.6)" />
    <circle r="18" fill="#EB6905" />
    <circle r="10.8" fill="#F8FAFC" />
  </g>
  <path d="M10 12.5H19.5V31.5L10 26.1V12.5Z" fill="#172554" />
  <path d="M10 29.9L19.5 35.3V52L12.7 48.8C10.9 47.9 10 46.1 10 44.1V29.9Z" fill="#172554" />
  <path d="M18.5 29.8L26.8 24.2C29.2 22.6 32.5 22.9 34.5 24.9L36.6 27L29.7 31.7C27.9 32.9 25.5 32.6 24 31.1L22.6 29.7L26 27.5" stroke="#172554" stroke-width="4.8" stroke-linecap="round" stroke-linejoin="round" />
  <path d="M20.8 35.4L25.3 39.4C26.7 40.7 28.8 40.7 30.2 39.4L34.4 35.5C35.2 34.8 36.4 34.8 37.2 35.6L39.2 37.6C40.5 38.9 42.6 39 44 37.7L47.1 34.9" stroke="#172554" stroke-width="4.8" stroke-linecap="round" stroke-linejoin="round" />
  <circle cx="30.9" cy="33.7" r="2.5" fill="#EB6905" />
</svg>